<?xml version="1.0" standalone="no"?>
<svg viewBox="0 0 200 200" xmlns="http://www.w3.org/2000/svg">
  <path fill="#FFFFFF" d="M35.2,-62.4C46.1,-54.6,55.9,-46.3,66.5,-35.8C77.1,-25.3,88.5,-12.7,89.2,0.4C89.9,13.5,79.9,26.9,69,36.8C58.1,46.7,46.2,53,34.5,61.4C22.8,69.8,11.4,80.2,-2.1,83.9C-15.7,87.6,-31.4,84.6,-42.3,75.8C-53.3,67,-59.5,52.5,-64.3,38.9C-69.1,25.3,-72.4,12.7,-73.3,-0.5C-74.2,-13.7,-72.6,-27.4,-65.6,-37.1C-58.6,-46.9,-46.2,-52.7,-34.4,-60C-22.5,-67.3,-11.3,-76,0.4,-76.7C12.1,-77.5,24.2,-70.2,35.2,-62.4Z" transform="translate(100 100)" />
</svg>
