<?xml version="1.0" standalone="no"?>
<svg viewBox="0 0 200 200" xmlns="http://www.w3.org/2000/svg">
  <path fill="#C49494" d="M40.1,-71.5C49.5,-64.1,53,-48.3,59.2,-35C65.4,-21.7,74.3,-10.9,75.1,0.4C75.9,11.7,68.5,23.5,61,34.7C53.6,45.9,46.2,56.5,36,65.1C25.8,73.7,12.9,80.3,-1.6,83.1C-16.2,85.9,-32.3,84.9,-46.3,78.6C-60.4,72.2,-72.2,60.4,-74.7,46.4C-77.1,32.4,-70.2,16.2,-69.2,0.5C-68.3,-15.1,-73.3,-30.2,-69.5,-41.7C-65.6,-53.2,-52.8,-61.2,-39.7,-66.6C-26.6,-72,-13.3,-74.7,1,-76.5C15.4,-78.3,30.7,-79,40.1,-71.5Z" transform="translate(100 100)" />
</svg>
