<?xml version="1.0" standalone="no"?>
<svg viewBox="0 0 200 200" xmlns="http://www.w3.org/2000/svg">
  <path fill="#927979" d="M37.6,-65.2C49.2,-58.4,59.6,-49.4,68,-38.2C76.3,-26.9,82.7,-13.5,84,0.8C85.4,15,81.7,30,73.7,41.9C65.7,53.8,53.4,62.5,40.4,68.4C27.4,74.3,13.7,77.5,-1.3,79.7C-16.2,81.9,-32.5,83.1,-43.9,76.3C-55.4,69.4,-62,54.6,-69.2,40.5C-76.4,26.5,-84.1,13.2,-85.8,-1C-87.4,-15.1,-83,-30.3,-74.9,-42.8C-66.8,-55.3,-55.1,-65.1,-42,-71.1C-28.9,-77.1,-14.4,-79.1,-0.7,-77.9C13,-76.6,25.9,-72,37.6,-65.2Z" transform="translate(100 100)" />
</svg>
